<svg width="20" height="18" viewBox="0 0 20 18" fill="none" xmlns="http://www.w3.org/2000/svg">
<path fill-rule="evenodd" clip-rule="evenodd" d="M4.34941 0.0978645C4.00939 0.220231 3.82348 0.352689 3.02862 1.03904C2.00007 1.92713 0.773832 3.96916 0.6406 5.01564C0.617099 5.20018 0.749853 5.61716 1.03893 6.26685C1.71007 7.77495 3.84775 9.19229 5.9401 9.5164C8.86881 9.97003 12.6234 8.36148 13.7135 6.18607C13.8692 5.87544 13.8762 5.84189 13.764 5.94355C13.5962 6.09564 12.5835 6.69097 12.2261 6.84759C6.70918 9.26563 1.08413 4.39073 4.58983 0.22966C4.78266 0.00076733 4.71795 -0.0347049 4.34941 0.0978645ZM14.1682 0.0705327C15.1565 1.34731 15.3291 1.7315 15.3932 2.79736C15.4223 3.28063 15.4382 3.36948 15.5354 3.58931C16.4263 5.60386 16.2594 7.83628 15.0262 10.3987C14.7109 11.0539 14.6334 11.1781 14.1989 11.7246C14.0357 11.9298 13.8027 12.2279 13.6811 12.3869C13.371 12.7926 12.9237 13.2522 12.5767 13.5218C10.0625 15.4757 7.56194 16.2191 5.04331 15.7616C4.00467 15.5729 3.94946 15.8121 4.90286 16.3699C8.61951 18.5444 12.9802 18.0737 16.2405 15.1462C16.7979 14.6458 17.8502 13.3506 18.022 12.9536C18.0439 12.9029 18.1031 12.7952 18.1534 12.7142C18.2581 12.5457 18.6723 11.7178 18.6723 11.677C18.6723 11.6622 18.7382 11.4816 18.8187 11.2756C20.2736 7.55431 18.5059 2.37162 15.0814 0.31858C14.6635 0.0680282 14.0339 -0.10296 14.1682 0.0705327Z" fill="#0E0E0E"/>
<path d="M6.0597 10.38C4.58671 10.3631 3.37855 9.67855 2.39119 9.01666C1.74576 8.584 1.11154 8.11339 0.788861 7.82777C0.0882581 7.20758 -0.0445324 7.33713 0.0114201 8.58606C0.136291 11.3736 1.37424 13.6763 3.11894 14.3662C6.77419 15.8117 11.3384 14.3562 13.5373 11.0441C14.6364 9.38851 15.081 8.18622 15.1796 6.60327C15.2776 5.02897 15.0686 3.98009 14.7838 4.61708C14.4989 5.25407 14.2143 10.4733 6.0597 10.38Z" fill="#0E0E0E"/>
</svg>
